<?xml version="1.0" standalone="no"?>
<!DOCTYPE svg PUBLIC "-//W3C//DTD SVG 20010904//EN"
 "http://www.w3.org/TR/2001/REC-SVG-20010904/DTD/svg10.dtd">
<svg version="1.0" xmlns="http://www.w3.org/2000/svg"
 width="447.000000pt" height="245.000000pt" viewBox="0 0 447.000000 245.000000"
 preserveAspectRatio="xMidYMid meet">

<g transform="translate(0.000000,245.000000) scale(0.100000,-0.100000)"
fill="#000000" stroke="none">
<path d="M34 2416 l-34 -34 2 -1161 3 -1161 28 -27 27 -28 2175 0 2175 0 27
28 28 27 3 1065 c1 673 -1 1065 -7 1065 -6 0 -8 -9 -6 -21 4 -18 2 -19 -12 -7
-15 12 -15 11 -3 -12 13 -24 12 -24 -5 -10 -17 14 -18 14 -6 -7 11 -22 8 -28
-13 -24 -5 1 -6 -5 -2 -14 3 -9 2 -13 -4 -10 -10 6 -15 -9 -10 -30 1 -5 -2 -7
-6 -3 -9 10 -64 -64 -57 -76 4 -5 1 -6 -5 -2 -7 4 -12 2 -12 -5 0 -7 -3 -10
-6 -7 -3 3 15 34 40 68 25 34 46 67 46 72 0 11 -73 -92 -103 -145 -10 -18 -16
-24 -13 -14 4 11 2 16 -5 11 -6 -3 -8 -15 -6 -26 4 -15 3 -17 -8 -8 -10 9 -16
7 -24 -9 -6 -11 -11 -26 -11 -34 0 -19 -44 -59 -55 -50 -4 5 -5 -1 -1 -11 5
-16 4 -17 -9 -6 -8 7 -12 17 -8 23 3 6 1 7 -5 3 -9 -5 -9 -13 -1 -29 7 -12 8
-19 4 -14 -5 4 -21 -4 -36 -19 -19 -19 -29 -22 -34 -13 -6 8 -4 10 5 4 9 -6
11 -4 5 5 -6 10 -13 8 -28 -11 -11 -13 -24 -23 -28 -22 -5 2 -8 -2 -6 -9 1 -7
-4 -13 -10 -14 -7 -1 -16 -3 -20 -4 -5 -1 -11 -2 -14 -2 -3 1 -4 -11 -1 -25 3
-18 1 -24 -7 -19 -6 4 -8 13 -5 19 4 7 3 8 -1 4 -12 -10 -15 -38 -4 -31 5 3 9
1 9 -4 0 -19 -14 -21 -34 -5 -21 18 -21 18 -2 -4 11 -13 14 -23 8 -23 -7 0
-11 -3 -11 -7 1 -5 1 -19 0 -33 -2 -24 -3 -24 -11 -4 -5 12 -15 26 -22 30 -10
6 -10 5 -2 -7 15 -18 25 -61 13 -53 -5 3 -9 13 -10 22 0 14 -2 13 -9 -3 -12
-29 -12 -37 3 -29 9 6 9 4 -1 -8 -11 -14 -10 -18 4 -26 11 -6 13 -11 5 -16 -8
-5 -8 -13 -1 -27 10 -18 6 -23 -12 -20 -5 0 -9 -6 -9 -14 -1 -8 -2 -21 -3 -27
-1 -7 2 -18 6 -25 6 -7 4 -14 -3 -19 -7 -4 -9 -3 -5 4 3 6 2 13 -4 17 -5 3
-10 3 -11 -2 0 -4 -2 -19 -5 -32 -4 -21 -3 -22 13 -10 16 12 17 12 6 -2 -10
-12 -10 -18 0 -29 6 -8 3 -7 -9 3 -11 9 -24 14 -28 10 -4 -5 -13 -8 -19 -8 -7
-1 -11 -7 -9 -15 3 -11 0 -11 -14 1 -16 13 -17 12 -11 -6 7 -20 7 -20 -8 -1
-8 11 -13 29 -10 40 4 13 -1 9 -11 -8 -16 -28 -17 -29 -30 -11 -8 10 -14 14
-14 9 0 -6 5 -15 12 -22 6 -6 8 -15 4 -19 -4 -4 -11 -1 -16 7 -9 13 -10 13
-11 0 -1 -8 -1 -20 0 -27 1 -7 -7 -10 -20 -8 -16 3 -18 1 -10 -9 8 -10 6 -19
-8 -37 -14 -18 -16 -30 -9 -48 4 -13 11 -21 14 -18 3 3 1 14 -5 26 -9 16 -7
22 8 33 10 7 19 16 20 21 2 15 26 47 35 47 4 0 4 -6 -3 -13 -8 -10 -7 -17 2
-28 10 -12 10 -12 -2 -2 -20 17 -42 -23 -29 -52 l9 -20 -17 20 c-16 20 -16 19
-10 -6 4 -18 1 -31 -9 -39 -8 -7 -13 -16 -10 -19 2 -4 -2 -8 -10 -8 -13 0 -13
3 0 17 14 16 14 18 0 24 -9 3 -13 11 -9 17 5 8 3 9 -5 4 -9 -5 -10 -10 -2 -18
15 -15 14 -30 -1 -21 -6 4 -8 3 -4 -4 3 -6 2 -13 -3 -17 -6 -3 -7 -13 -4 -22
5 -12 3 -14 -7 -8 -9 5 -11 4 -6 -4 10 -15 29 -3 22 15 -8 22 2 17 15 -7 6
-12 7 -19 1 -15 -5 3 -15 -1 -22 -9 -7 -8 -18 -15 -25 -15 -7 0 -18 -7 -25
-15 -14 -17 -34 -10 -24 8 4 7 4 9 -1 5 -4 -4 -15 -2 -24 4 -12 9 -11 7 2 -8
16 -19 16 -23 2 -34 -8 -7 -12 -16 -9 -21 3 -5 0 -10 -5 -10 -26 -3 -30 -4
-37 -11 -3 -4 3 -5 16 -3 17 3 19 1 11 -9 -6 -7 -7 -17 -3 -21 4 -5 0 -4 -8 1
-20 12 -41 14 -35 4 3 -5 -3 -13 -12 -19 -13 -7 -14 -10 -4 -11 8 0 11 -3 8
-7 -4 -3 -1 -13 5 -22 8 -10 4 -9 -10 3 -12 11 -22 16 -22 11 0 -4 -6 -2 -14
5 -13 10 -13 8 -3 -14 10 -21 13 -23 19 -8 6 15 7 15 7 1 1 -9 -8 -27 -20 -40
-11 -13 -18 -18 -14 -11 3 6 1 12 -5 12 -6 0 -8 5 -4 11 4 8 9 7 15 -2 5 -8 9
-9 9 -4 0 6 -4 16 -9 23 -6 11 -10 10 -15 -3 -5 -15 -9 -15 -23 -4 -15 12 -16
12 -8 -1 5 -8 9 -24 7 -35 l-2 -20 10 20 c8 18 9 17 7 -7 -2 -15 -6 -31 -11
-35 -4 -4 -6 -3 -5 2 2 6 -2 20 -9 31 -6 12 -9 23 -7 26 3 3 -1 5 -9 5 -8 0
-14 -5 -13 -11 1 -6 -5 -10 -13 -8 -12 3 -12 1 -3 -9 8 -8 9 -19 2 -37 -5 -14
-7 -32 -5 -39 3 -8 1 -11 -4 -8 -6 3 -8 22 -6 41 3 19 1 32 -4 29 -5 -3 -6
-13 -3 -22 4 -10 2 -14 -4 -10 -7 5 -9 0 -6 -13 3 -11 2 -28 -3 -37 -4 -10 -8
-21 -9 -25 -2 -5 -4 -11 -5 -15 -1 -5 -1 -12 0 -18 1 -5 -2 -6 -6 -2 -11 11
-14 38 -3 32 5 -4 6 1 3 9 -3 9 -1 16 5 16 6 0 11 6 11 13 -1 6 -9 2 -19 -10
-10 -12 -21 -20 -25 -18 -3 3 -2 0 3 -6 5 -6 7 -18 3 -27 -5 -13 -7 -12 -13 4
-7 18 -8 18 -8 -2 -1 -11 4 -25 11 -32 8 -8 5 -10 -14 -7 -21 4 -25 1 -24 -17
0 -12 -6 -23 -14 -25 -13 -4 -13 -3 0 6 12 8 11 10 -7 8 -17 -1 -20 -5 -13
-18 5 -9 7 -19 4 -22 -8 -8 -44 4 -44 16 0 6 -2 8 -5 5 -9 -8 6 -38 16 -32 15
9 10 -3 -8 -17 -10 -8 -14 -9 -10 -2 4 6 3 14 -3 18 -6 3 -10 -4 -11 -17 0
-22 -1 -22 -8 -3 -5 12 -4 26 3 35 9 13 9 13 -5 3 -21 -17 -33 -5 -16 16 10
14 10 14 -4 4 -9 -7 -20 -9 -25 -5 -5 4 0 -3 11 -16 24 -29 27 -48 9 -63 -8
-6 -14 -8 -14 -3 0 5 -9 -2 -20 -16 l-19 -25 -10 25 c-7 18 -10 20 -10 8 -1
-10 -5 -18 -10 -18 -6 0 -8 9 -6 20 2 11 0 22 -5 25 -4 3 -7 -3 -5 -12 2 -18
-62 -86 -74 -79 -4 3 -8 -7 -9 -21 -1 -15 1 -23 5 -19 5 4 8 11 8 14 0 14 16
32 28 32 6 0 2 -7 -9 -15 -10 -8 -15 -15 -10 -15 5 0 1 -9 -9 -20 -10 -11 -22
-17 -28 -13 -6 4 -8 0 -4 -10 4 -11 2 -14 -7 -11 -8 3 -17 1 -20 -5 -4 -6 -13
-8 -21 -5 -8 4 -12 11 -8 17 4 6 1 7 -6 3 -9 -6 -8 -13 6 -29 18 -20 18 -20
-8 -3 -22 13 -26 14 -26 1 0 -8 4 -12 8 -9 4 2 11 -1 15 -7 4 -8 3 -9 -4 -5
-7 4 -12 3 -12 -2 0 -6 -9 -8 -20 -5 -17 5 -26 27 -21 56 1 5 -3 6 -8 3 -5 -4
-15 2 -21 11 -10 16 -11 16 -6 1 3 -10 1 -20 -4 -23 -6 -4 -10 -1 -10 4 0 6
-5 11 -11 11 -5 0 -8 -4 -5 -9 3 -4 -1 -17 -10 -27 -14 -18 -15 -18 -9 6 5 21
4 22 -5 7 -6 -9 -9 -21 -6 -26 3 -5 -1 -14 -9 -21 -12 -10 -16 -9 -21 5 -5 13
-9 14 -15 3 -9 -14 -10 -12 -13 31 0 11 -5 23 -9 28 -5 4 -7 1 -5 -7 2 -9 -5
-14 -19 -15 -12 0 -25 -4 -30 -8 -4 -5 -3 -7 2 -5 6 2 11 -1 13 -7 1 -5 -2
-11 -8 -11 -5 -1 -13 -3 -17 -4 -5 -1 -11 -2 -15 -1 -5 0 -7 -5 -5 -12 1 -7
-6 -11 -18 -10 -11 1 -15 0 -8 -3 7 -3 10 -13 7 -22 -5 -15 -4 -15 9 1 13 15
15 15 20 2 4 -8 1 -14 -6 -12 -7 1 -11 -4 -9 -12 3 -12 0 -12 -12 -2 -12 10
-16 9 -24 -5 -8 -15 -10 -15 -15 0 -4 9 -2 15 5 13 6 -1 13 5 15 13 3 10 2 11
-4 4 -4 -6 -16 -10 -26 -8 -15 2 -16 0 -5 -14 11 -13 11 -15 -4 -9 -10 3 -20
1 -24 -5 -4 -7 -3 -8 4 -4 18 11 15 -19 -3 -34 -8 -7 -15 -9 -15 -5 0 4 -7 2
-15 -5 -12 -10 -14 -8 -10 9 4 23 -10 37 -20 21 -4 -6 -11 -8 -16 -4 -5 3 -8
0 -7 -8 2 -7 -8 -14 -21 -16 -14 -2 -21 0 -17 6 4 6 3 13 -2 16 -4 2 -8 -6 -8
-18 0 -17 5 -22 17 -19 9 3 19 0 23 -5 3 -5 -3 -9 -14 -8 -11 0 -18 -3 -17 -9
1 -5 6 -9 10 -7 5 1 6 -2 2 -8 -4 -7 -16 -3 -32 10 -29 23 -44 26 -39 8 1 -7
1 -10 -1 -5 -3 4 -12 7 -21 7 -12 0 -13 3 -5 8 7 4 10 16 8 27 -2 11 -4 24 -4
29 -1 11 -30 -24 -31 -36 0 -4 8 -4 17 -1 15 6 16 5 3 -9 -8 -9 -17 -12 -18
-7 -2 5 -8 7 -13 3 -5 -3 -12 2 -15 10 -3 9 -11 13 -17 9 -12 -7 -1 14 20 39
9 10 11 18 4 22 -6 4 -6 18 -1 36 6 20 4 32 -5 40 -7 6 -12 18 -10 28 1 9 0
11 -2 5 -3 -7 -9 -13 -14 -13 -6 0 -7 5 -3 12 4 6 3 8 -3 5 -6 -4 -14 4 -17
18 -4 14 -11 25 -17 25 -6 0 -8 -4 -5 -8 3 -5 -1 -9 -8 -9 -7 0 -13 6 -13 13
0 7 3 13 6 12 21 -2 31 4 25 14 -4 6 -3 8 3 5 15 -9 22 26 11 49 -9 18 -8 18
5 2 8 -10 17 -14 22 -10 4 4 -2 -10 -14 -30 -12 -23 -16 -40 -10 -43 5 -4 8
-1 7 7 -2 7 2 12 8 11 8 -2 10 6 6 20 -5 20 -4 21 14 7 18 -14 18 -14 5 3 -7
9 -11 18 -7 18 3 1 10 2 15 3 5 0 13 4 17 8 3 4 -2 6 -12 4 -11 -2 -28 5 -39
16 -15 15 -16 18 -3 13 18 -7 19 9 4 34 -6 10 -5 12 2 7 17 -10 15 6 -3 31
-10 15 -12 24 -5 28 8 5 7 12 -2 23 -12 15 -11 16 4 3 15 -11 19 -11 24 3 3 9
11 16 16 16 7 0 6 -5 -1 -13 -6 -8 -7 -18 -3 -22 4 -5 1 -5 -6 -1 -10 6 -9 0
2 -23 18 -34 29 -41 20 -13 -5 13 -4 14 4 3 14 -20 -7 -70 -27 -64 -13 4 -13
3 -2 -5 11 -8 11 -10 0 -15 -8 -3 -4 -4 8 -4 12 1 21 4 21 7 -2 22 4 40 11 36
16 -10 21 25 6 41 -8 8 -12 20 -8 26 4 7 -1 6 -10 -2 -15 -12 -17 -11 -14 7 2
12 6 24 9 28 4 3 4 13 0 22 -5 15 -4 16 14 2 17 -14 18 -14 6 2 -8 9 -11 27
-8 40 5 20 4 20 -7 -3 -6 -14 -20 -33 -29 -42 -15 -16 -16 -15 -14 16 2 20 8
32 17 32 8 0 17 8 22 19 6 16 10 16 25 5 9 -7 14 -9 10 -5 -4 5 -2 16 5 25 10
14 10 14 -5 3 -10 -8 -19 -9 -22 -3 -4 5 -2 12 2 15 10 6 9 36 -2 54 -5 8 -3
11 6 10 7 -2 12 3 10 10 -1 8 2 11 9 6 9 -5 10 -2 6 10 -4 10 -3 15 3 11 10
-6 19 9 24 39 1 8 6 19 11 23 4 4 6 3 2 -2 -3 -6 2 -19 10 -30 15 -20 15 -20
8 2 -4 16 -2 22 7 20 7 -2 10 -2 5 1 -4 2 -12 13 -18 25 -10 21 -10 21 5 3 11
-13 16 -15 16 -6 0 8 -10 25 -22 39 -13 14 -16 20 -8 14 11 -10 17 -10 30 2
14 13 17 13 17 1 0 -8 -3 -14 -6 -13 -3 1 -6 -2 -6 -8 0 -5 3 -9 7 -8 4 2 5
-6 3 -17 -2 -12 0 -18 5 -15 5 3 7 14 5 25 -2 10 3 24 11 31 11 9 11 15 3 25
-6 8 -15 11 -20 8 -5 -3 -9 -1 -9 4 0 11 29 37 31 28 1 -3 2 -10 3 -15 0 -5 4
-12 8 -16 13 -13 2 20 -14 43 -9 13 -19 19 -22 14 -3 -6 -1 -12 6 -14 7 -3 8
-7 2 -11 -5 -3 -15 3 -22 14 -10 15 -10 19 0 17 7 -2 12 3 10 10 -1 8 2 11 8
7 10 -6 15 9 10 30 -1 6 2 7 6 2 12 -12 12 -47 0 -40 -6 4 -5 -1 3 -10 18 -23
20 -22 15 9 -3 15 -1 23 5 20 15 -10 25 14 12 27 -9 9 -10 7 -5 -8 8 -21 6
-21 -16 8 -11 15 -11 18 0 15 8 -2 15 3 16 10 1 6 3 15 4 20 1 4 2 10 1 14 0
4 9 5 20 3 15 -3 19 0 15 11 -4 10 -2 13 6 8 8 -5 9 -2 5 9 -3 9 -2 19 3 22 6
4 10 11 10 17 0 6 -7 5 -17 -3 -15 -11 -16 -11 -5 1 16 19 15 33 -3 27 -8 -4
-17 -1 -21 5 -4 6 -3 8 2 5 6 -3 16 -2 24 3 11 7 11 11 1 23 -10 13 -9 15 3
13 9 -1 19 -6 23 -11 4 -4 2 -5 -6 0 -10 6 -12 4 -7 -4 6 -9 11 -9 22 0 8 7
14 7 14 1 0 -15 -26 -33 -35 -24 -4 4 -3 -3 3 -14 6 -12 10 -31 7 -43 -2 -11
1 -23 6 -26 5 -4 6 -11 3 -17 -4 -6 -2 -8 3 -5 6 4 9 23 7 42 -2 26 0 34 9 29
7 -4 9 -4 5 1 -4 4 -2 15 4 24 8 10 4 9 -10 -3 -12 -11 -22 -14 -22 -9 0 6 7
16 15 23 8 7 14 18 13 24 -1 6 4 21 12 33 12 18 17 20 30 10 12 -10 13 -10 4
3 -22 31 -23 46 -1 48 17 1 19 -1 7 -8 -13 -8 -13 -11 -1 -22 9 -8 11 -9 7 -1
-3 6 -2 14 4 18 6 3 8 17 6 30 -4 23 14 29 31 10 4 -4 2 -5 -6 0 -10 6 -12 4
-6 -5 6 -9 4 -11 -5 -5 -9 6 -11 4 -6 -4 6 -9 12 -9 25 3 10 9 20 14 22 11 3
-2 4 9 3 25 -1 17 2 27 7 24 5 -3 9 3 10 13 0 11 3 13 6 5 3 -7 -1 -19 -8 -28
-8 -10 -9 -18 -2 -25 8 -8 11 -6 10 7 -1 11 3 18 9 17 7 -1 10 6 7 17 -3 12 0
20 6 20 7 0 9 5 4 13 -4 6 6 4 21 -7 16 -10 26 -14 22 -8 -7 12 18 35 28 25 4
-4 3 5 -3 19 -7 18 -7 29 0 33 5 4 6 12 2 18 -4 7 1 5 11 -2 16 -13 17 -13 14
5 -2 11 2 18 10 16 6 -1 13 7 13 18 1 19 4 31 9 48 1 4 2 9 2 12 0 3 9 7 21 7
17 2 19 0 7 -7 -11 -7 -11 -10 -2 -10 7 0 10 -5 6 -11 -5 -8 -9 -8 -14 1 -5 8
-10 9 -14 2 -3 -6 0 -13 6 -15 10 -4 10 -6 1 -6 -7 -1 -13 -8 -13 -16 0 -20
-30 -66 -39 -61 -4 3 -8 -5 -8 -17 -2 -20 -1 -20 8 -4 6 9 15 15 20 11 5 -3 9
-2 8 3 -1 4 -1 14 0 22 1 11 4 11 19 0 15 -12 16 -12 6 1 -15 20 0 64 18 54 7
-4 10 -4 6 1 -4 4 -3 14 3 22 6 7 8 13 3 13 -5 0 -2 5 6 10 10 6 11 10 3 10
-7 0 -13 5 -13 11 0 5 4 8 9 4 6 -3 15 4 21 15 6 11 16 18 21 14 6 -3 5 3 -2
14 -7 12 -17 18 -22 15 -5 -3 -4 -9 3 -13 7 -4 8 -10 3 -13 -5 -3 -15 4 -22
16 -8 12 -10 19 -6 15 10 -9 37 11 30 22 -7 11 22 6 32 -5 4 -4 2 -5 -6 0 -10
6 -12 4 -6 -5 5 -9 4 -11 -3 -6 -18 11 -14 0 5 -15 9 -8 14 -9 10 -3 -4 7 0
17 8 24 8 7 15 20 14 29 0 12 -2 11 -9 -4 -7 -15 -9 -16 -9 -4 -1 18 22 42 32
33 3 -3 3 -12 1 -19 -3 -7 -1 -16 5 -20 7 -4 8 0 4 11 -4 11 -3 15 5 10 13 -8
21 4 24 38 2 17 6 22 14 16 6 -6 14 -7 18 -3 4 4 11 2 15 -6 7 -10 9 -9 14 3
3 8 1 18 -5 22 -7 5 -8 2 -3 -6 5 -9 4 -11 -4 -6 -19 12 -2 27 19 16 13 -7 21
-7 25 0 4 6 11 8 16 5 5 -3 6 2 2 11 -5 13 -3 15 7 9 8 -5 11 -4 7 2 -4 6 5
20 18 33 13 13 22 27 19 31 -12 20 -11 46 2 47 8 1 21 3 28 4 8 1 15 4 14 7
-2 19 3 31 11 26 9 -5 24 10 27 28 1 4 3 9 4 12 1 3 3 13 4 23 1 19 36 73 36
56 0 -5 -5 -15 -10 -20 -7 -7 -7 -11 3 -11 7 0 14 12 15 26 1 14 10 32 19 41
13 11 14 11 5 0 -6 -7 -12 -19 -12 -24 0 -6 7 0 16 12 8 12 12 28 8 35 -4 6
-4 9 1 5 13 -12 47 12 41 29 -5 13 -4 14 8 4 13 -11 15 -9 11 8 -2 12 0 19 4
17 4 -3 13 6 20 20 10 22 14 24 26 14 13 -11 14 -10 9 3 -3 9 3 24 15 36 23
23 28 17 9 -9 -7 -9 -3 -5 10 8 12 13 20 27 17 32 -3 5 3 7 15 5 11 -2 22 0
25 6 4 5 -653 9 -1695 9 l-1702 0 -34 -34z m3122 -291 c-11 -8 -14 -15 -7 -15
7 0 9 -5 5 -12 -6 -9 -9 -9 -12 0 -2 7 -9 10 -15 6 -7 -3 -1 4 12 15 13 12 26
21 30 21 3 0 -3 -7 -13 -15z m-42 -55 c-6 -6 -10 -3 -10 10 0 13 4 16 10 10 7
-7 7 -13 0 -20z m-41 -67 c3 -5 -12 -27 -33 -50 -35 -40 -39 -42 -51 -25 -13
15 -12 16 4 3 20 -15 23 -2 5 19 -10 11 -9 11 6 0 18 -14 19 -13 13 2 -4 13
-2 15 11 11 15 -6 15 -5 4 10 -12 14 -11 16 8 12 16 -3 20 0 16 10 -5 15 9 21
17 8z m1190 -96 c3 -8 -1 -14 -8 -14 -7 0 -11 6 -8 14 3 7 6 13 8 13 2 0 5 -6
8 -13z m-1356 -49 c2 -17 0 -19 -7 -8 -5 8 -6 18 -4 22 8 12 10 10 11 -14z
m-108 -122 c0 -7 -2 -6 -6 2 -2 6 -8 10 -12 8 -4 -3 -8 1 -8 9 0 11 4 12 14 4
7 -6 13 -17 12 -23z m1273 1 c-7 -8 -8 -18 -4 -22 4 -5 1 -5 -5 -1 -10 5 -10
11 -1 26 7 11 14 17 17 15 2 -3 -1 -11 -7 -18z m-59 -49 c-6 -23 -6 -23 14 1
14 17 22 21 27 12 4 -7 2 -10 -5 -9 -6 2 -14 -3 -17 -11 -2 -8 0 -11 6 -7 6 3
9 -1 7 -11 -1 -10 2 -23 7 -30 6 -7 5 -14 -2 -18 -6 -4 -9 -1 -8 5 2 7 -5 14
-14 15 -10 2 -18 -2 -18 -8 0 -7 -5 -6 -11 3 -8 12 -10 9 -6 -12 3 -18 -2 -33
-11 -40 -11 -9 -14 -9 -9 -1 4 6 3 14 -3 18 -5 3 -10 -2 -11 -12 0 -11 -3 -13
-6 -5 -7 19 39 84 50 69 5 -7 6 -1 3 16 -4 15 -4 32 -1 37 10 17 13 11 8 -12z
m-1353 -153 c-14 -17 -23 -13 -26 11 -2 13 0 13 14 2 14 -11 15 -10 8 7 -6 16
-5 17 5 8 10 -10 9 -16 -1 -28z m-113 -87 c-3 -8 -6 -5 -6 6 -1 11 2 17 5 13
3 -3 4 -12 1 -19z m-96 -85 c-5 -11 -17 -26 -26 -33 -13 -11 -15 -10 -12 6 4
29 17 45 29 38 8 -5 9 -1 4 12 -5 14 -4 16 4 8 9 -9 9 -17 1 -31z m1316 -78
c0 -8 -4 -12 -9 -9 -5 3 -6 10 -3 15 9 13 12 11 12 -6z m-1492 -274 c1 -11 -4
-22 -11 -25 -8 -3 -10 2 -6 16 4 16 2 19 -9 13 -11 -7 -12 -6 -2 7 7 8 11 17
9 20 -1 3 2 2 7 -3 6 -5 11 -18 12 -28z m1355 5 c-6 -8 -18 -12 -26 -9 -9 3
-14 0 -12 -8 2 -8 -3 -13 -11 -11 -8 2 -11 -3 -8 -12 4 -9 2 -18 -4 -21 -5 -4
-6 -11 -3 -17 4 -7 2 -8 -5 -4 -6 4 -9 11 -6 16 3 5 -2 13 -10 18 -15 8 -15
10 -1 21 9 8 16 10 16 6 0 -5 9 0 19 9 11 10 24 15 30 12 5 -4 12 -2 16 4 3 5
9 10 12 10 3 0 0 -6 -7 -14z m-1325 -25 c3 -5 2 -12 -3 -15 -5 -3 -9 1 -9 9 0
17 3 19 12 6z m1319 -9 c3 -5 -1 -9 -9 -9 -8 0 -12 4 -9 9 3 4 7 8 9 8 2 0 6
-4 9 -8z m-92 -54 c-8 -8 -9 -4 -5 13 4 13 8 18 11 10 2 -7 -1 -18 -6 -23z
m-47 -25 c-2 -10 -4 -22 -4 -28 -1 -5 -5 -3 -11 5 -5 9 -5 19 2 27 14 17 17
16 13 -4z m-132 -124 c3 -16 1 -26 -7 -26 -10 0 -14 28 -7 56 2 10 10 -6 14
-30z m-1198 -36 c-12 -8 -14 -13 -6 -13 10 0 11 -3 2 -14 -15 -18 -49 -27 -57
-15 -3 5 -2 9 3 8 21 -4 43 2 43 12 0 5 -4 8 -8 5 -5 -3 -9 1 -9 9 0 8 3 14 6
13 21 -2 31 4 25 14 -5 7 -3 8 6 3 10 -6 9 -11 -5 -22z m-64 -190 c13 -16 12
-17 -3 -4 -17 13 -22 21 -14 21 2 0 10 -8 17 -17z m-10 -20 c13 -16 12 -17 -3
-4 -17 13 -22 21 -14 21 2 0 10 -8 17 -17z m893 -82 c3 -5 -3 -11 -15 -14 -16
-4 -18 -3 -8 9 13 16 16 17 23 5z m-919 -111 c-3 -5 -1 -10 4 -10 6 0 11 6 11
13 0 6 9 -1 19 -16 10 -16 22 -28 27 -28 5 1 10 -10 11 -24 1 -14 -3 -25 -8
-25 -6 0 -8 4 -4 9 3 5 1 12 -4 15 -5 4 -11 1 -14 -6 -2 -7 -2 -2 0 12 3 23 2
23 -10 8 -8 -10 -18 -18 -22 -18 -4 0 -2 7 5 15 10 12 10 15 -3 15 -8 0 -17
-6 -19 -12 -3 -7 -5 4 -5 25 0 20 4 37 9 37 5 0 6 -4 3 -10z m680 -50 c5 -28
2 -37 -14 -47 -18 -11 -19 -10 -15 10 11 51 12 77 3 71 -5 -3 -7 -10 -4 -15 4
-5 1 -17 -4 -26 -6 -10 -11 -13 -11 -6 0 14 -33 10 -37 -4 -2 -6 4 -10 14 -9
12 0 18 -6 18 -19 1 -11 5 -27 10 -35 7 -13 6 -13 -7 -2 -9 7 -14 21 -11 32 3
12 0 20 -6 20 -7 0 -10 -4 -6 -9 3 -5 0 -13 -7 -17 -7 -4 -10 -4 -6 1 4 4 3
14 -3 21 -8 10 -5 21 15 45 14 17 26 27 26 23 0 -5 5 -3 12 4 16 16 25 5 33
-38z m-160 22 c-7 -8 15 -43 24 -38 5 3 17 -4 27 -17 19 -21 19 -21 0 -7 -18
14 -19 13 -13 -5 7 -19 6 -19 -7 -2 -21 27 -30 20 -11 -10 12 -22 9 -20 -14 7
-17 19 -31 30 -31 25 0 -6 6 -18 13 -25 10 -13 10 -13 -2 -3 -11 10 -17 9 -28
-5 -13 -15 -13 -15 -8 6 4 12 3 22 -2 21 -20 -3 -25 2 -13 16 10 12 16 13 26
4 11 -9 14 -7 15 7 1 11 1 22 1 25 -1 3 6 6 14 6 8 0 12 -2 9 -5z m189 -48 c3
-8 2 -12 -4 -9 -6 3 -10 10 -10 16 0 14 7 11 14 -7z m-127 -41 c-4 -3 1 -16
10 -27 18 -21 18 -21 -4 -2 -20 16 -23 36 -6 36 4 0 3 -3 0 -7z m-507 -8 c0
-2 -6 -8 -13 -14 -10 -8 -14 -7 -14 2 0 8 6 14 14 14 7 0 13 -1 13 -2z m541
-12 c13 -16 12 -17 -3 -4 -17 13 -22 21 -14 21 2 0 10 -8 17 -17z m-328 -30
c-10 -30 -14 -34 -24 -27 -6 4 -3 14 7 25 21 24 25 24 17 2z m-211 -41 c9 -9
9 -15 1 -23 -8 -8 -11 -6 -10 7 1 10 -3 19 -10 19 -6 0 -14 3 -18 7 -4 3 0 5
9 4 9 -1 22 -8 28 -14z"/>
<path d="M4020 1654 c0 -8 5 -12 10 -9 6 4 8 11 5 16 -9 14 -15 11 -15 -7z"/>
<path d="M3970 1611 c0 -6 4 -13 10 -16 6 -3 7 1 4 9 -7 18 -14 21 -14 7z"/>
<path d="M2425 1360 c-3 -5 -1 -10 4 -10 6 0 11 5 11 10 0 6 -2 10 -4 10 -3 0
-8 -4 -11 -10z"/>
<path d="M3550 981 c0 -6 4 -13 10 -16 6 -3 7 1 4 9 -7 18 -14 21 -14 7z"/>
<path d="M2070 321 c0 -6 4 -13 10 -16 6 -3 7 1 4 9 -7 18 -14 21 -14 7z"/>
<path d="M2676 302 c-3 -5 1 -9 9 -9 8 0 12 4 9 9 -3 4 -7 8 -9 8 -2 0 -6 -4
-9 -8z"/>
<path d="M2717 271 c-4 -17 -3 -21 5 -13 5 5 8 16 6 23 -3 8 -7 3 -11 -10z"/>
<path d="M2560 281 c0 -5 5 -13 10 -16 6 -3 10 -2 10 4 0 5 -4 13 -10 16 -5 3
-10 2 -10 -4z"/>
<path d="M2516 272 c-3 -5 1 -9 9 -9 8 0 12 4 9 9 -3 4 -7 8 -9 8 -2 0 -6 -4
-9 -8z"/>
<path d="M3346 2343 c-6 -14 -5 -15 5 -6 7 7 10 15 7 18 -3 3 -9 -2 -12 -12z"/>
<path d="M3084 2029 c-8 -14 14 -19 25 -6 8 10 7 14 -5 14 -8 0 -17 -4 -20 -8z"/>
<path d="M4211 1877 c-1 -10 -5 -16 -10 -13 -5 3 -14 -1 -20 -8 -7 -8 -8 -17
-3 -20 13 -8 45 30 39 46 -3 8 -6 6 -6 -5z"/>
<path d="M2930 1865 c0 -6 6 -12 13 -12 8 0 14 6 14 12 0 6 -6 12 -14 12 -7 0
-13 -6 -13 -12z"/>
<path d="M4124 1812 c3 -6 -2 -15 -11 -21 -10 -5 -15 -12 -12 -15 3 -4 14 2
23 13 13 14 14 21 5 27 -7 4 -10 3 -5 -4z"/>
<path d="M3846 1558 c3 -5 10 -6 15 -3 13 9 11 12 -6 12 -8 0 -12 -4 -9 -9z"/>
<path d="M3878 1558 c0 -7 -2 -17 -3 -23 -2 -5 -3 -18 -4 -28 -1 -11 -6 -16
-13 -12 -7 4 -3 -2 10 -13 22 -20 31 -39 12 -27 -6 4 -10 3 -9 -2 4 -22 -2
-44 -10 -38 -5 3 -7 18 -5 32 3 15 3 25 -1 22 -11 -11 -14 -49 -4 -54 5 -4 9
-14 9 -23 0 -13 -2 -13 -16 4 -15 18 -15 18 -5 -3 14 -27 14 -36 2 -28 -10 5
-28 -19 -30 -40 -1 -5 -5 -10 -10 -10 -5 0 -12 -3 -16 -7 -6 -5 19 -4 35 2 3
1 8 2 12 1 4 0 12 8 18 19 6 11 8 20 5 20 -3 0 0 10 7 23 6 12 13 28 14 35 5
29 14 43 25 36 8 -5 8 -1 0 13 -6 11 -8 23 -4 26 3 4 1 12 -4 19 -6 7 -9 25
-7 41 1 15 1 27 -2 27 -2 0 -5 -6 -6 -12z m12 -68 c0 -5 -5 -10 -11 -10 -5 0
-7 5 -4 10 3 6 8 10 11 10 2 0 4 -4 4 -10z m-46 -155 c-4 -8 -10 -13 -15 -10
-4 3 -6 12 -3 20 4 8 10 13 15 10 4 -3 6 -12 3 -20z"/>
<path d="M2616 1501 c-4 -5 -2 -12 3 -15 5 -4 12 -2 15 3 4 5 2 12 -3 15 -5 4
-12 2 -15 -3z"/>
<path d="M3745 1329 c-4 -6 -5 -12 -2 -15 2 -3 7 2 10 11 7 17 1 20 -8 4z"/>
<path d="M2385 1179 c-5 -14 -10 -18 -14 -10 -6 9 -12 7 -22 -5 -13 -16 -12
-17 6 -11 19 7 19 7 1 -7 -18 -14 -18 -15 2 -13 11 0 20 4 19 7 -1 3 5 16 12
28 7 13 10 26 8 29 -3 2 -8 -5 -12 -18z"/>
<path d="M2230 869 c0 -6 -10 -25 -22 -42 -27 -37 -30 -54 -15 -64 7 -3 9 -2
4 2 -4 5 -1 15 7 24 14 16 16 20 16 42 0 5 4 8 8 5 4 -2 9 6 10 20 1 13 0 24
-3 24 -3 0 -5 -5 -5 -11z"/>
<path d="M2123 665 c0 -8 4 -15 9 -15 4 0 8 7 8 15 0 8 -4 15 -8 15 -5 0 -9
-7 -9 -15z"/>
<path d="M2204 596 c1 -8 5 -18 8 -22 4 -3 5 1 4 10 -1 8 -5 18 -8 22 -4 3 -5
-1 -4 -10z"/>
<path d="M2106 581 c-4 -6 -2 -11 3 -11 6 0 11 -7 11 -15 0 -8 5 -15 11 -15 8
0 8 -5 -1 -15 -8 -9 -9 -15 -2 -15 21 0 22 19 3 50 -11 19 -22 27 -25 21z"/>
<path d="M3130 566 c0 -2 7 -7 16 -10 8 -3 12 -2 9 4 -6 10 -25 14 -25 6z"/>
<path d="M3027 516 c-9 -14 -17 -33 -17 -43 0 -15 3 -14 16 5 8 12 19 20 24
17 15 -9 20 11 7 30 -12 16 -14 15 -30 -9z m27 -3 c4 -10 4 -14 0 -10 -4 4
-14 1 -22 -6 -13 -11 -14 -9 -1 11 17 26 15 26 23 5z"/>
<path d="M2615 381 c-3 -5 -2 -12 3 -15 5 -3 9 1 9 9 0 17 -3 19 -12 6z"/>
<path d="M2860 379 c0 -5 -5 -7 -12 -3 -7 5 -8 3 -3 -6 6 -9 4 -12 -6 -8 -10
4 -15 -1 -16 -13 -2 -18 -1 -18 19 1 12 11 25 17 29 14 5 -3 6 2 3 10 -7 18
-14 21 -14 5z"/>
<path d="M2110 365 c-11 -13 -10 -14 4 -9 9 3 16 10 16 15 0 13 -6 11 -20 -6z"/>
<path d="M2724 368 c-4 -7 -4 -10 1 -6 4 4 15 2 24 -5 14 -11 14 -10 2 6 -16
20 -18 21 -27 5z"/>
<path d="M2770 365 c5 -7 6 -16 2 -21 -4 -5 -3 -5 2 -1 15 12 15 34 0 34 -9 0
-11 -4 -4 -12z"/>
<path d="M2150 356 c0 -2 8 -10 18 -17 15 -13 16 -12 3 4 -13 16 -21 21 -21
13z"/>
<path d="M2143 329 c2 -8 6 -19 9 -25 4 -6 3 -25 -2 -42 -5 -20 -5 -34 1 -38
6 -4 4 -13 -6 -24 -12 -14 -14 -23 -7 -36 9 -15 10 -15 18 7 4 13 8 29 9 34 0
6 6 9 13 8 7 -2 9 4 5 14 -4 10 -2 14 4 10 5 -3 10 0 10 7 0 7 -6 13 -13 13
-7 0 -11 -4 -8 -9 3 -4 0 -8 -5 -8 -6 0 -11 9 -11 21 0 11 4 18 8 15 15 -9 6
34 -10 51 -13 12 -16 13 -15 2z"/>
<path d="M2752 320 c0 -14 2 -19 5 -12 2 6 2 18 0 25 -3 6 -5 1 -5 -13z"/>
<path d="M2286 187 c3 -10 9 -15 12 -12 3 3 0 11 -7 18 -10 9 -11 8 -5 -6z"/>
<path d="M2367 185 c-3 -7 0 -12 8 -11 22 3 27 13 11 19 -8 3 -17 0 -19 -8z"/>
<path d="M2217 173 c-12 -11 -8 -20 18 -31 20 -9 23 -9 18 3 -3 8 -12 15 -20
15 -8 0 -11 5 -8 10 7 11 2 13 -8 3z"/>
</g>
</svg>
